<svg xmlns="http://www.w3.org/2000/svg" version="1.1" xmlns:xlink="http://www.w3.org/1999/xlink" width="2000" height="555" viewBox="0 0 2000 555"><svg xml:space="preserve" width="2000" height="555" data-version="2" data-id="lg_C8hxpzRyvmlOMMLRtv" viewBox="0 0 557 555" x="0" y="0"><rect width="100%" height="100%" fill="transparent"></rect><circle r="78.185" fill="#9edc29" transform="translate(276.54 153.67)scale(1.89)"></circle><circle r="65.228" fill="none" stroke="#fff" stroke-width="3" transform="translate(277.97 154.13)scale(1.89)"></circle><path fill="#fff" d="M331.193 98.634a44.634 44.634 0 0 0-42.983 2.258c-12.384 7.74-19.492 21.104-18.55 34.83 0 .58.09 1.173.154 1.754a6.45 6.45 0 0 0 .271 1.2v29.67a30.754 30.754 0 0 0-46.195-13.932 6.837 6.837 0 0 0-2.928 5.624 30.702 30.702 0 0 0 46.634 26.251q.76-.464 1.509-.98l1.058.568v24.51a3.87 3.87 0 1 0 7.74 0l-.078-66.087a45.15 45.15 0 0 0 14.913 2.58 44.634 44.634 0 0 0 23.62-6.682c13.054-8.14 20.098-22.162 18.395-36.585a6.45 6.45 0 0 0-3.56-4.979m-81.877 75.904 11.804 6.45a23.014 23.014 0 0 1-32.405-20.498 23.014 23.014 0 0 1 35.01 13.093l-10.706-5.83a3.87 3.87 0 0 0-3.703 6.798Zm62.952-40.945a37.152 37.152 0 0 1-30.289 3.87l14.629-9.03a3.87 3.87 0 1 0-4.05-6.45l-15.158 9.314a31.089 31.089 0 0 1 14.925-23.84 36.894 36.894 0 0 1 34.83-2.167c1.006 11.146-4.644 21.956-14.887 28.303"></path><path fill="#9edc29" d="M175.32 376.35q0 7.99-2.21 21.25 1.02-.85 3.06-2.89 2.38-2.38 9.52-6.97l2.55-1.87 5.1-2.55 5.61-3.74q-.34-.34.85-1.7 3.23-5.61 3.74-9.86 0-2.21-.68-3.32-.68-1.1-4.25-1.44-.34-.34-3.23-.85-6.97 0-9.26.85-2.3.85-3.49.85l-2.55.68-2.89.17-.68 4.59q0 .17-.68 3.4 0 1.19-.51 3.4m31.79 77.86-2.89-2.72q-2.55-.85-7.14-4.93-.85-1.19-4.42-4.08-3.4-2.04-8.5-7.99 0-.17-1.19-2.72-2.04-1.87-3.91-7.48-.17-.17-.51-.68-.34-.51-1.1-1.62-.77-1.1-1.62-3.82-.85-2.72-3.4-5.95h-.68q0 1.02-.51 2.89v3.4l-1.02 9.86-2.55 16.49q.68 1.36 0 4.59 0 1.36-.85 4.42-.85 3.06-2.55 4.08-1.7 1.02-6.63.34-1.7-.68-4.76-4.76-1.19-.51-3.4-5.44.34-3.06.17-3.83-.17-.76-.17-1.95t.17-1.53q-.34.34 0-3.4v-1.19q0-.68 1.02-5.44 0-3.57.09-5.02.08-1.44 1.1-3.48v-4.59l.17-4.59q1.02-3.06 1.02-7.14.34-2.04.43-4 .08-1.95.59-4.33 0-3.74.51-5.7.51-1.95.6-2.72.08-.76.25-2.46l1.19-7.31.51-10.71-2.04-1.36q-5.44-2.21-7.65-4.42-.85-.51-.59-2.64.25-2.12 2.29-3.48 2.38 0 6.97-2.89.51 0 3.06-1.7l3.06-1.02q.51-.51 4.25-1.87.85 0 2.72-.94 1.87-.93 3.91-1.1 1.7-.17 6.89-.94 5.18-.76 8.75.26 2.21 0 4.76.85 4.08 0 9.18 2.72 1.19 0 3.4 1.53l3.23 1.53 4.25 3.4q3.57 2.89 6.46 7.31 2.04 2.04 1.53 5.27-2.38 14.79-20.57 29.41l-4.93 2.21-8.33 5.27q4.25 5.95 11.05 13.94.51 1.19 3.91 4.76l5.78 7.14 2.04 3.06 4.59 5.1q.51 1.19 2.89 2.89l2.89 2.72q3.91 3.06 3.23 6.97-.68 3.91-4.76 4.08l-4.08-.34zm56.94-46.92q-1.19-6.8-6.63-6.29-3.06.17-5.27 4.08-3.06 5.95-2.63 15.38.42 9.44 1.36 13.6.93 4.17 3.31 7.23 1.36 2.38 4.08 2.21 4.76 0 6.97-7.99l1.36-4.08q.85-.85.34-1.7 1.7-4.25 1.87-10.03-1.7-1.19-2.04-2.21-1.02-2.89-1.02-3.91-1.19-.85-1.36-3.23-.17-2.38-.34-3.06m-31.11 15.98.68-8.67q1.19-11.73 7.14-20.06 5.78-6.97 16.32-7.14h1.02q9.86 0 14.28 4.25 4.76 3.74 7.06 8.16 2.29 4.42 2.97 6.46.68 2.04.85 5.95.34 7.31-2.89 8.33 2.38 16.15-2.89 25.67-1.7 3.91-4.93 8.5-2.38 3.06-8.5 3.4-6.12 0-10.62-.68-4.51-.68-9.95-4.34-5.44-3.65-7.65-11.98-2.38-7.99-2.89-17.85m96.22-15.98q-1.19-6.8-6.63-6.29-3.06.17-5.27 4.08-3.06 5.95-2.63 15.38.42 9.44 1.36 13.6.93 4.17 3.31 7.23 1.36 2.38 4.08 2.21 4.76 0 6.97-7.99l1.36-4.08q.85-.85.34-1.7 1.7-4.25 1.87-10.03-1.7-1.19-2.04-2.21-1.02-2.89-1.02-3.91-1.19-.85-1.36-3.23-.17-2.38-.34-3.06m-31.11 15.98.68-8.67q1.19-11.73 7.14-20.06 5.78-6.97 16.32-7.14h1.02q9.86 0 14.28 4.25 4.76 3.74 7.06 8.16 2.29 4.42 2.97 6.46.68 2.04.85 5.95.34 7.31-2.89 8.33 2.38 16.15-2.89 25.67-1.7 3.91-4.93 8.5-2.38 3.06-8.5 3.4-6.12 0-10.62-.68-4.51-.68-9.95-4.34-5.44-3.65-7.65-11.98-2.38-7.99-2.89-17.85m76.84-25.84.17-1.53q-3.57-.34-5.01-.6-1.45-.25-4.68-.59-3.23-.34-5.1-1.02-3.57-1.19-4.08-6.21-.51-5.01 3.23-6.2 3.4-.85 4.76-.85 1.36 0 5.1-.34 1.87-1.02 5.1-1.19l2.55-.68q0 .17 1.36-.34l.85-3.57q0-2.72 1.53-5.44 0-1.19 2.21-6.63 0-.68 3.06-9.86.68-.85 5.1-3.91 2.72-1.36 7.65 1.87 2.72 1.19 3.74 3.23-1.02 1.02-1.02 4.76-.17 1.19-2.38 12.58v4.76q1.36.17 4.51.85 3.14.68 7.56 1.53 8.5 1.7 10.71 6.8.85 3.74-.34 5.27-1.19 1.53-5.78 2.21-3.74.17-9.77.17-6.04 0-8.93.85-.34 3.06-.34 4.76l-.17 2.55q0 1.19-1.53 12.58-1.02 1.53-1.7 15.81v12.41q0 3.06.51 5.78.17 3.74.85 5.27 0 1.53.85 6.46-2.04 4.93-6.71 4.93-4.68 0-8.25-3.4l-1.87-2.72q-.51-1.36-.76-1.87-.26-.51-.43-1.19-1.19-3.4-1.87-4.25-1.02-1.36-1.02-2.04v-1.7q-.34-2.89-.85-4.93-.85-.85-.85-5.78.34-9.01 0-10.37.51-.51.17-6.46l.51-3.74q0-.68.68-5.1-.34-.68-.17-3.66.17-2.97.51-4.16.34-2.04.34-5.1M17.33 541.87q-3.82 0-6.4-1.42-2.57-1.42-3.86-4.09t-1.29-6.4q0-3.7 1.36-6.37 1.35-2.67 3.89-4.13 2.54-1.45 6.14-1.45 2.54 0 4.41.74 1.86.75 3.34 2.2l-1.02 2.14q-1.09-.95-2.09-1.51-1.01-.57-2.1-.85t-2.54-.28q-4.13 0-6.32 2.49-2.19 2.5-2.19 7.05 0 4.59 2.12 7.03 2.13 2.44 6.62 2.44 1.65 0 3.15-.31 1.5-.32 2.92-.91l-.59 1.49v-8.19h-5.94v-2.14h8.28v10.79q-1.42.76-3.58 1.22-2.16.46-4.31.46m20.43-.3h-2.7V529q0-.99-.05-2.01-.05-1.03-.15-1.98h2.57l.33 4.02-.46.04q.33-1.49 1.15-2.45.83-.95 1.95-1.43t2.34-.48q.5 0 .88.03.38.04.71.17l-.03 2.37q-.5-.16-.91-.21-.41-.05-.94-.05-1.45 0-2.53.69-1.07.7-1.61 1.79-.55 1.08-.55 2.31zm20.79.3q-2.37 0-4.14-1.04-1.77-1.04-2.72-2.97-.96-1.93-.96-4.57 0-2.67.96-4.59.95-1.91 2.72-2.95 1.77-1.04 4.14-1.04 2.41 0 4.18 1.04 1.76 1.04 2.74 2.95.97 1.92.97 4.59 0 2.64-.97 4.57-.98 1.93-2.74 2.97-1.77 1.04-4.18 1.04m0-2.18q2.38 0 3.76-1.63 1.39-1.63 1.39-4.77 0-3.17-1.4-4.8-1.41-1.63-3.75-1.63t-3.73 1.63q-1.38 1.63-1.38 4.8 0 3.14 1.38 4.77 1.39 1.63 3.73 1.63m23.73 1.88h-2.61l-6.14-16.56h2.84l5.12 14.58h-.86l5.28-14.58h2.31l5.18 14.58h-.83l5.15-14.58h2.71l-6.17 16.56h-2.58l-5.34-14.81h1.32zm28.97 0h-2.67v-16.56h2.67zm.3-20.32h-3.3v-3.01h3.3zm12.22 20.32h-2.67v-12.73q0-.93-.09-1.9-.08-.98-.18-1.93h2.58l.33 3.63h-.4q.73-1.92 2.33-2.92 1.6-1.01 3.71-1.01 2.94 0 4.44 1.57 1.5 1.57 1.5 4.93v10.36h-2.67v-10.19q0-2.35-.94-3.42-.94-1.07-2.92-1.07-2.31 0-3.67 1.42-1.35 1.42-1.35 3.79zm28.6 7.36q-2.14 0-3.96-.53-1.81-.52-3.27-1.61l.8-2.02q1.02.73 2.01 1.16.99.43 2.04.64 1.06.22 2.25.22 2.44 0 3.69-1.29 1.26-1.29 1.26-3.66v-4.85h.33q-.53 1.94-2.18 3.08-1.65 1.14-3.86 1.14-2.28 0-3.94-1.01-1.67-1-2.58-2.87-.91-1.86-.91-4.4 0-2.51.91-4.36.91-1.85 2.58-2.85 1.66-1.01 3.94-1.01 2.24 0 3.88 1.12 1.63 1.12 2.16 3.1l-.33-.33.3-3.59h2.6q-.13.95-.2 1.93-.06.97-.06 1.9v12.63q0 3.7-1.9 5.58t-5.56 1.88m-.4-9.9q2.41 0 3.8-1.6 1.39-1.6 1.39-4.5 0-2.91-1.39-4.49t-3.8-1.58q-2.37 0-3.79 1.58t-1.42 4.49q0 2.9 1.42 4.5t3.79 1.6m34.47 2.54h-2.68v-14.48h-3.23v-2.08h3.96l-.73.69v-2.77q0-2.81 1.42-4.29 1.42-1.49 4.06-1.49.66 0 1.37.12.71.11 1.17.31v2.21q-.39-.16-.97-.28-.58-.11-1.17-.11-1.03 0-1.75.41-.73.41-1.09 1.24-.36.82-.36 2.11v2.41l-.43-.56h5.05v2.08h-4.62zm14.9 0h-2.7V529q0-.99-.05-2.01-.05-1.03-.15-1.98h2.57l.33 4.02-.46.04q.33-1.49 1.16-2.45.82-.95 1.94-1.43t2.35-.48q.49 0 .87.03.38.04.71.17l-.03 2.37q-.5-.16-.91-.21-.41-.05-.94-.05-1.45 0-2.53.69-1.07.7-1.61 1.79-.55 1.08-.55 2.31zm20.79.3q-2.37 0-4.14-1.04-1.76-1.04-2.72-2.97-.96-1.93-.96-4.57 0-2.67.96-4.59.96-1.91 2.72-2.95 1.77-1.04 4.14-1.04 2.41 0 4.18 1.04 1.76 1.04 2.74 2.95.97 1.92.97 4.59 0 2.64-.97 4.57-.98 1.93-2.74 2.97-1.77 1.04-4.18 1.04m0-2.18q2.38 0 3.76-1.63 1.39-1.63 1.39-4.77 0-3.17-1.4-4.8t-3.75-1.63q-2.34 0-3.73 1.63-1.38 1.63-1.38 4.8 0 3.14 1.38 4.77 1.39 1.63 3.73 1.63m19.37 1.88h-2.67v-12.73q0-.93-.08-1.9-.08-.98-.18-1.93h2.57l.33 3.63h-.4q.66-1.88 2.1-2.91 1.44-1.02 3.48-1.02 2.08 0 3.38.99 1.31.99 1.77 3.07h-.5q.63-1.88 2.22-2.97 1.58-1.09 3.69-1.09 2.74 0 4.13 1.57 1.38 1.57 1.38 4.93v10.36h-2.67v-10.19q0-2.35-.83-3.42-.82-1.07-2.64-1.07-2.07 0-3.28 1.43-1.2 1.44-1.2 3.85v9.4h-2.68v-10.19q0-2.35-.82-3.42-.83-1.07-2.64-1.07-2.08 0-3.27 1.43-1.19 1.44-1.19 3.85zm50.1.3q-2.44 0-3.73-1.4t-1.29-4.24v-9.14h-3.23v-2.08h3.23v-4.52l2.67-.76v5.28h4.76v2.08h-4.76v8.84q0 1.98.68 2.82.68.84 2.03.84.63 0 1.12-.11.5-.12.89-.28v2.24q-.46.2-1.1.31-.65.12-1.27.12m13-.3h-2.67v-24.28h2.67v11.38h-.43q.69-1.95 2.33-2.95 1.63-1.01 3.78-1.01 2.97 0 4.42 1.6 1.45 1.6 1.45 4.84v10.42h-2.67v-10.26q0-2.31-.91-3.37-.91-1.05-2.92-1.05-2.31 0-3.68 1.42t-1.37 3.73zm28.69.3q-3.9 0-6.14-2.26-2.25-2.26-2.25-6.29 0-2.6.99-4.53.99-1.93 2.78-3.01 1.78-1.07 4.09-1.07 2.28 0 3.83.96 1.55.95 2.37 2.72.83 1.77.83 4.17v.99h-12.84v-1.68h11.09l-.56.43q0-2.64-1.19-4.12-1.19-1.49-3.53-1.49-2.48 0-3.86 1.73-1.39 1.74-1.39 4.67v.3q0 3.1 1.54 4.7 1.53 1.6 4.3 1.6 1.49 0 2.79-.44 1.3-.45 2.49-1.47l.93 1.88q-1.09 1.06-2.76 1.63-1.67.58-3.51.58m35.79 7.06q-2.14 0-3.96-.53-1.81-.52-3.27-1.61l.8-2.02q1.02.73 2.01 1.16.99.43 2.05.64 1.05.22 2.24.22 2.44 0 3.7-1.29 1.25-1.29 1.25-3.66v-4.85h.33q-.53 1.94-2.18 3.08-1.65 1.14-3.86 1.14-2.28 0-3.94-1.01-1.67-1-2.58-2.87-.9-1.86-.9-4.4 0-2.51.9-4.36.91-1.85 2.58-2.85 1.66-1.01 3.94-1.01 2.24 0 3.88 1.12 1.63 1.12 2.16 3.1l-.33-.33.3-3.59h2.6q-.13.95-.19 1.93-.07.97-.07 1.9v12.63q0 3.7-1.9 5.58t-5.56 1.88m-.39-9.9q2.4 0 3.79-1.6 1.39-1.6 1.39-4.5 0-2.91-1.39-4.49t-3.79-1.58q-2.38 0-3.8 1.58t-1.42 4.49q0 2.9 1.42 4.5t3.8 1.6m20.3 2.54h-2.71V529q0-.99-.04-2.01-.05-1.03-.15-1.98h2.57l.33 4.02-.46.04q.33-1.49 1.15-2.45.83-.95 1.95-1.43t2.34-.48q.5 0 .88.03.38.04.71.17l-.04 2.37q-.49-.16-.9-.21-.42-.05-.94-.05-1.46 0-2.53.69-1.07.7-1.61 1.79-.55 1.08-.55 2.31zm20.78.3q-2.38 0-4.14-1.04-1.77-1.04-2.72-2.97-.96-1.93-.96-4.57 0-2.67.96-4.59.95-1.91 2.72-2.95 1.76-1.04 4.14-1.04 2.41 0 4.18 1.04 1.76 1.04 2.73 2.95.98 1.92.98 4.59 0 2.64-.98 4.57-.97 1.93-2.73 2.97-1.77 1.04-4.18 1.04m0-2.18q2.38 0 3.76-1.63 1.39-1.63 1.39-4.77 0-3.17-1.4-4.8-1.41-1.63-3.75-1.63t-3.73 1.63q-1.38 1.63-1.38 4.8 0 3.14 1.38 4.77 1.39 1.63 3.73 1.63m22.54 2.18q-2.94 0-4.44-1.62-1.5-1.61-1.5-4.95v-10.29h2.67v10.23q0 2.27.93 3.35.92 1.07 2.87 1.07 2.18 0 3.5-1.42 1.32-1.42 1.32-3.79v-9.44h2.67v16.56h-2.61v-3.73h.43q-.69 1.92-2.23 2.97-1.53 1.06-3.61 1.06m20.53-.3h-2.68v-12.73q0-.93-.08-1.9-.08-.98-.18-1.93h2.57l.33 3.63h-.39q.72-1.92 2.32-2.92 1.6-1.01 3.72-1.01 2.93 0 4.43 1.57 1.51 1.57 1.51 4.93v10.36h-2.68v-10.19q0-2.35-.94-3.42-.94-1.07-2.92-1.07-2.31 0-3.66 1.42t-1.35 3.79zm27.58.3q-2.17 0-3.82-1.04t-2.56-2.95q-.91-1.92-.91-4.59 0-2.71.91-4.62.91-1.91 2.56-2.94 1.65-1.02 3.82-1.02 2.25 0 3.88 1.12t2.2 3.04h-.4v-11.58h2.67v24.28h-2.64v-3.96h.37q-.53 1.98-2.18 3.12-1.65 1.14-3.9 1.14m.56-2.18q2.35 0 3.77-1.63t1.42-4.77q0-3.17-1.42-4.8t-3.77-1.63q-2.34 0-3.74 1.63-1.4 1.63-1.4 4.8 0 3.14 1.4 4.77 1.4 1.63 3.74 1.63m36.73 2.18q-2.93 0-4.43-1.62-1.51-1.61-1.51-4.95v-10.29h2.68v10.23q0 2.27.92 3.35.92 1.07 2.87 1.07 2.18 0 3.5-1.42 1.32-1.42 1.32-3.79v-9.44h2.67v16.56h-2.6v-3.73h.42q-.69 1.92-2.22 2.97-1.54 1.06-3.62 1.06m20.53 6.82h-2.67v-19.86q0-.93-.09-1.9-.08-.98-.18-1.93h2.58l.36 3.92h-.4q.53-1.94 2.15-3.08 1.62-1.14 3.86-1.14 2.24 0 3.88 1.02 1.63 1.03 2.55 2.94.93 1.91.93 4.62 0 2.67-.91 4.59-.91 1.91-2.56 2.95-1.65 1.04-3.89 1.04-2.21 0-3.83-1.12t-2.14-3.07h.36zm5.08-9.01q2.38 0 3.78-1.63t1.4-4.77q0-3.17-1.4-4.8t-3.78-1.63q-2.34 0-3.74 1.63-1.41 1.63-1.41 4.8 0 3.14 1.41 4.77 1.4 1.63 3.74 1.63"></path></svg></svg>