<svg xmlns="http://www.w3.org/2000/svg" xml:space="preserve" width="192" height="192" data-version="2">
    <path fill="#9edc29" d="M88.72 70.52q0 7.24-2 19.25.93-.77 2.77-2.62 2.16-2.15 8.63-6.31l2.31-1.69 4.62-2.31 5.08-3.39q-.31-.31.77-1.54 2.93-5.08 3.39-8.93 0-2.01-.62-3.01-.61-1-3.85-1.31-.31-.3-2.92-.77-6.32 0-8.4.77t-3.15.77l-2.31.62-2.62.15-.62 4.16q0 .16-.61 3.08 0 1.08-.47 3.08m28.8 70.53-2.62-2.46q-2.31-.77-6.46-4.47-.77-1.07-4.01-3.69-3.08-1.85-7.7-7.24 0-.15-1.08-2.46-1.84-1.7-3.54-6.78-.15-.15-.46-.62-.31-.46-1-1.46t-1.46-3.46q-.77-2.47-3.08-5.39h-.62q0 .92-.46 2.61v3.08l-.93 8.94-2.31 14.93q.62 1.24 0 4.16 0 1.23-.77 4.01-.77 2.77-2.31 3.69-1.54.93-6 .31-1.54-.62-4.31-4.31-1.08-.46-3.08-4.93.3-2.77.15-3.47-.15-.69-.15-1.77 0-1.07.15-1.38-.31.31 0-3.08v-1.08q0-.62.92-4.93 0-3.23.08-4.54t1-3.16v-4.16l.16-4.15q.92-2.78.92-6.47.31-1.85.38-3.62.08-1.77.54-3.93 0-3.39.47-5.16.46-1.77.53-2.46.08-.69.24-2.23l1.07-6.63.47-9.7-1.85-1.23q-4.93-2-6.93-4-.77-.47-.54-2.39.23-1.93 2.08-3.16 2.15 0 6.31-2.62.46 0 2.77-1.54l2.78-.92q.46-.46 3.85-1.69.77 0 2.46-.85t3.54-1q1.54-.16 6.24-.85t7.93.23q2 0 4.31.77 3.7 0 8.32 2.47 1.08 0 3.08 1.38l2.92 1.39 3.85 3.08q3.24 2.62 5.86 6.62 1.84 1.85 1.38 4.77-2.15 13.4-18.63 26.65l-4.47 2-7.54 4.77q3.85 5.39 10.01 12.63.46 1.08 3.54 4.31l5.23 6.47 1.85 2.77 4.16 4.62q.46 1.08 2.62 2.62l2.62 2.46q3.54 2.78 2.92 6.32-.61 3.54-4.31 3.69l-3.7-.3z" paint-order="stroke"/>
</svg>
